<svg viewBox="0 0 1080 260" xmlns="http://www.w3.org/2000/svg">
  <g transform="translate(40,20) scale(0.4296875)">
    
<circle cx="256" cy="256" r="244" fill="#1F7A72" stroke="#2A2117" stroke-width="8"/>
<g fill="#BD5B34">
<polygon points="239.02,106.96 256.00,10.00 272.98,106.96"/>
<polygon points="297.35,111.81 331.77,73.07 328.72,124.81"/>
<polygon points="349.38,138.61 429.95,82.05 373.39,162.62"/>
<polygon points="387.19,183.28 438.93,180.23 400.19,214.65"/>
<polygon points="405.04,239.02 502.00,256.00 405.04,272.98"/>
<polygon points="400.19,297.35 438.93,331.77 387.19,328.72"/>
<polygon points="373.39,349.38 429.95,429.95 349.38,373.39"/>
<polygon points="328.72,387.19 331.77,438.93 297.35,400.19"/>
<polygon points="272.98,405.04 256.00,502.00 239.02,405.04"/>
<polygon points="214.65,400.19 180.23,438.93 183.28,387.19"/>
<polygon points="162.62,373.39 82.05,429.95 138.61,349.38"/>
<polygon points="124.81,328.72 73.07,331.77 111.81,297.35"/>
<polygon points="106.96,272.98 10.00,256.00 106.96,239.02"/>
<polygon points="111.81,214.65 73.07,180.23 124.81,183.28"/>
<polygon points="138.61,162.62 82.05,82.05 162.62,138.61"/>
<polygon points="183.28,124.81 180.23,73.07 214.65,111.81"/>
</g>
<circle cx="256" cy="256" r="148" fill="#1F7A72"/>
<g transform="translate(256,256) scale(0.95)">
<path d="M0,40 C-50,-10 -100,-10 -100,-55 C-100,-95 -60,-110 -25,-90 C-10,-80 0,-65 0,-50 C0,-65 10,-80 25,-90 C60,-110 100,-95 100,-55 C100,-10 50,-10 0,40 Z"
      fill="#F4ECDA" stroke="#2A2117" stroke-width="6" stroke-linejoin="round"/>
</g>

  </g>
  <g transform="translate(310,100)">
    <g fill="#2A2117"><g transform="translate(0.0,0) scale(0.0224609375,-0.0224609375)"><path d="M1155 1242 975 1268V1341H1452V1268L1280 1242V0H1163L336 1078V100L516 73V0H39V73L211 100V1242L39 1268V1341H498L1155 484Z"/></g><g transform="translate(40.2197265625,0) scale(0.0224609375,-0.0224609375)"><path d="M35 73 207 100V1242L35 1268V1341H1177V1000H1086L1054 1217Q942 1231 730 1231H522V739H873L904 887H993V475H904L873 627H522V110H775Q1033 110 1113 126L1170 374H1261L1242 0H35Z"/></g><g transform="translate(77.9013671875,0) scale(0.0224609375,-0.0224609375)"><path d="M1501 -31H1378L1044 796L713 -31H590L146 1242L29 1268V1341H631V1268L474 1242L760 443L1074 1227H1199L1514 445L1751 1242L1582 1268V1341H2016V1268L1899 1242Z"/></g><g transform="translate(152.6213671875,0) scale(0.0224609375,-0.0224609375)"><path d="M882 0H827L332 1133V100L512 73V0H35V73L207 100V1242L35 1268V1341H562L945 459L1336 1341H1874V1268L1702 1242V100L1874 73V0H1207V73L1387 100V1133Z"/></g><g transform="translate(203.038359375,0) scale(0.0224609375,-0.0224609375)"><path d="M35 73 207 100V1242L35 1268V1341H1177V1000H1086L1054 1217Q942 1231 730 1231H522V739H873L904 887H993V475H904L873 627H522V110H775Q1033 110 1113 126L1170 374H1261L1242 0H35Z"/></g><g transform="translate(240.72,0) scale(0.0224609375,-0.0224609375)"><path d="M330 100 496 73V0H38V73L186 100L617 648L233 1242L82 1268V1341H735V1268L565 1242L799 880L1084 1242L918 1268V1341H1377V1268L1229 1242L864 779L1303 100L1455 73V0H802V73L972 100L682 547Z"/></g><g transform="translate(280.9397265625,0) scale(0.0224609375,-0.0224609375)"><path d="M556 100 728 74V0H69V74L241 100V1241L69 1268V1341H728V1268L556 1241Z"/></g><g transform="translate(305.84109375,0) scale(0.0224609375,-0.0224609375)"><path d="M815 -20Q478 -20 289.0 159.0Q100 338 100 655Q100 999 280.5 1177.5Q461 1356 814 1356Q1047 1356 1297 1289L1303 967H1213L1185 1161Q1053 1251 878 1251Q646 1251 539.0 1106.5Q432 962 432 658Q432 377 544.0 230.0Q656 83 870 83Q983 83 1067.5 113.0Q1152 143 1200 184L1232 404H1323L1317 64Q1227 29 1083.0 4.5Q939 -20 815 -20Z"/></g><g transform="translate(346.0608203125,0) scale(0.0224609375,-0.0224609375)"><path d="M432 672Q432 353 519.5 216.5Q607 80 797 80Q986 80 1073.5 217.0Q1161 354 1161 672Q1161 989 1073.5 1122.0Q986 1255 797 1255Q607 1255 519.5 1122.0Q432 989 432 672ZM100 672Q100 1356 797 1356Q1141 1356 1317.0 1182.5Q1493 1009 1493 672Q1493 331 1315.0 155.5Q1137 -20 797 -20Q458 -20 279.0 155.0Q100 330 100 672Z"/></g></g>
  </g>
  <g transform="translate(310,189)">
    <g fill="#2A2117"><g transform="translate(0.0,0) scale(0.052734375,-0.052734375)"><path d="M1155 1242 975 1268V1341H1452V1268L1280 1242V0H1163L336 1078V100L516 73V0H39V73L211 100V1242L39 1268V1341H498L1155 484Z"/></g><g transform="translate(79.994140625,0) scale(0.052734375,-0.052734375)"><path d="M432 672Q432 353 519.5 216.5Q607 80 797 80Q986 80 1073.5 217.0Q1161 354 1161 672Q1161 989 1073.5 1122.0Q986 1255 797 1255Q607 1255 519.5 1122.0Q432 989 432 672ZM100 672Q100 1356 797 1356Q1141 1356 1317.0 1182.5Q1493 1009 1493 672Q1493 331 1315.0 155.5Q1137 -20 797 -20Q458 -20 279.0 155.0Q100 330 100 672Z"/></g><g transform="translate(166.0,0) scale(0.052734375,-0.052734375)"><path d="M1155 1242 975 1268V1341H1452V1268L1280 1242V0H1163L336 1078V100L516 73V0H39V73L211 100V1242L39 1268V1341H498L1155 484Z"/></g><g transform="translate(245.994140625,0) scale(0.052734375,-0.052734375)"><path d="M871 944Q871 1104 811.5 1167.5Q752 1231 602 1231H523V636H606Q745 636 808.0 706.0Q871 776 871 944ZM523 526V100L746 73V0H48V73L207 100V1242L35 1268V1341H626Q911 1341 1052.0 1245.5Q1193 1150 1193 946Q1193 526 703 526Z"/></g><g transform="translate(313.96484375,0) scale(0.052734375,-0.052734375)"><path d="M523 568V100L695 73V0H48V73L207 100V1242L35 1268V1341H676Q972 1341 1118.0 1250.0Q1264 1159 1264 966Q1264 678 994 596L1352 100L1497 73V0H1063L689 568ZM952 964Q952 1114 890.0 1172.5Q828 1231 663 1231H523V678H668Q822 678 887.0 742.0Q952 806 952 964Z"/></g><g transform="translate(393.958984375,0) scale(0.052734375,-0.052734375)"><path d="M432 672Q432 353 519.5 216.5Q607 80 797 80Q986 80 1073.5 217.0Q1161 354 1161 672Q1161 989 1073.5 1122.0Q986 1255 797 1255Q607 1255 519.5 1122.0Q432 989 432 672ZM100 672Q100 1356 797 1356Q1141 1356 1317.0 1182.5Q1493 1009 1493 672Q1493 331 1315.0 155.5Q1137 -20 797 -20Q458 -20 279.0 155.0Q100 330 100 672Z"/></g><g transform="translate(479.96484375,0) scale(0.052734375,-0.052734375)"><path d="M522 572V100L745 73V0H48V73L207 100V1242L35 1268V1341H1153V980H1059L1027 1217Q978 1224 865.0 1227.5Q752 1231 687 1231H522V682H849L880 852H969V400H880L849 572Z"/></g><g transform="translate(547.935546875,0) scale(0.052734375,-0.052734375)"><path d="M556 100 728 74V0H69V74L241 100V1241L69 1268V1341H728V1268L556 1241Z"/></g><g transform="translate(591.96484375,0) scale(0.052734375,-0.052734375)"><path d="M310 0V73L523 100V1235H472Q243 1235 150 1215L123 966H32V1341H1335V966H1243L1216 1215Q1133 1233 888 1233H839V100L1052 73V0Z"/></g><g transform="translate(666.0,0) scale(0.052734375,-0.052734375)"><path d="M109 411H197L242 196Q284 147 369.0 114.0Q454 81 545 81Q832 81 832 317Q832 391 777.5 442.0Q723 493 606 533Q434 590 358.5 625.5Q283 661 231.0 709.0Q179 757 148.0 825.5Q117 894 117 994Q117 1171 237.5 1263.5Q358 1356 590 1356Q758 1356 962 1313V994H873L828 1178Q726 1252 590 1252Q467 1252 401.0 1206.5Q335 1161 335 1067Q335 1000 390.0 952.5Q445 905 562 868Q791 793 876.5 737.5Q962 682 1007.0 600.0Q1052 518 1052 407Q1052 -20 549 -20Q434 -20 314.5 -0.5Q195 19 109 51Z"/></g></g>
  </g>
</svg>