<svg viewBox="0 0 512 512" width="512" height="512" xmlns="http://www.w3.org/2000/svg">
<circle cx="256" cy="256" r="244" fill="#1F7A72" stroke="#2A2117" stroke-width="8"/>
<g fill="#BD5B34">
<polygon points="239.02,106.96 256.00,10.00 272.98,106.96"/>
<polygon points="297.35,111.81 331.77,73.07 328.72,124.81"/>
<polygon points="349.38,138.61 429.95,82.05 373.39,162.62"/>
<polygon points="387.19,183.28 438.93,180.23 400.19,214.65"/>
<polygon points="405.04,239.02 502.00,256.00 405.04,272.98"/>
<polygon points="400.19,297.35 438.93,331.77 387.19,328.72"/>
<polygon points="373.39,349.38 429.95,429.95 349.38,373.39"/>
<polygon points="328.72,387.19 331.77,438.93 297.35,400.19"/>
<polygon points="272.98,405.04 256.00,502.00 239.02,405.04"/>
<polygon points="214.65,400.19 180.23,438.93 183.28,387.19"/>
<polygon points="162.62,373.39 82.05,429.95 138.61,349.38"/>
<polygon points="124.81,328.72 73.07,331.77 111.81,297.35"/>
<polygon points="106.96,272.98 10.00,256.00 106.96,239.02"/>
<polygon points="111.81,214.65 73.07,180.23 124.81,183.28"/>
<polygon points="138.61,162.62 82.05,82.05 162.62,138.61"/>
<polygon points="183.28,124.81 180.23,73.07 214.65,111.81"/>
</g>
<circle cx="256" cy="256" r="148" fill="#1F7A72"/>
<g transform="translate(256,256) scale(0.95)">
<path d="M0,40 C-50,-10 -100,-10 -100,-55 C-100,-95 -60,-110 -25,-90 C-10,-80 0,-65 0,-50 C0,-65 10,-80 25,-90 C60,-110 100,-95 100,-55 C100,-10 50,-10 0,40 Z"
      fill="#F4ECDA" stroke="#2A2117" stroke-width="6" stroke-linejoin="round"/>
</g>
</svg>